<svg width="10" height="9" viewBox="0 0 10 9" fill="none" xmlns="http://www.w3.org/2000/svg">
<path d="M6 0.499289C5.99987 0.405204 5.97319 0.313066 5.92303 0.233463C5.87288 0.153861 5.80128 0.0900248 5.71647 0.0492909C5.63166 0.00855703 5.53708 -0.00742159 5.4436 0.00319172C5.35011 0.013805 5.26152 0.0505793 5.188 0.109288L2.825 1.99929H0.5C0.367392 1.99929 0.240215 2.05197 0.146447 2.14574C0.0526785 2.2395 0 2.36668 0 2.49929V6.49929C0 6.6319 0.0526785 6.75907 0.146447 6.85284C0.240215 6.94661 0.367392 6.99929 0.5 6.99929H2.825L5.188 8.88929C5.26152 8.948 5.35011 8.98477 5.4436 8.99539C5.53708 9.006 5.63166 8.99002 5.71647 8.94929C5.80128 8.90855 5.87288 8.84472 5.92303 8.76511C5.97319 8.68551 5.99987 8.59337 6 8.49929V0.499289ZM3.312 2.88929L5 1.53929V7.45929L3.312 6.10929C3.22349 6.03828 3.11347 5.99949 3 5.99929H1V2.99929H3C3.11347 2.99909 3.22349 2.9603 3.312 2.88929V2.88929ZM9.025 4.49929C9.02577 5.09035 8.90973 5.67574 8.68354 6.22182C8.45735 6.76789 8.12548 7.26388 7.707 7.68129L7 6.97429C7.32548 6.64962 7.5836 6.26383 7.7595 5.83908C7.93541 5.41434 8.02563 4.95902 8.025 4.49929C8.02558 4.03957 7.93533 3.58426 7.75942 3.15953C7.58352 2.73479 7.32544 2.34899 7 2.02429L7.707 1.31729C8.12548 1.7347 8.45735 2.23069 8.68354 2.77676C8.90973 3.32284 9.02577 3.90822 9.025 4.49929V4.49929Z" fill="#535353"/>
</svg>
